{"title":"Death Race*2008*[BluRay][720p][ENG, POL]","uid":5913220,"size":5219588653,"categoryP":"video","categoryS":"hd___movies","magnet":"?xt=urn:btih:ba23577fc0669b76fa161411faaefd599f88b272&amp;dn=Death+Race%2A2008%2A%5BBluRay%5D%5B720p%5D%5BENG%2C+POL%5D&amp;tr=udp%3A%2F%2Ftracker.openbittorrent.com%3A80&amp;tr=udp%3A%2F%2Fopen.demonii.com%3A1337&amp;tr=udp%3A%2F%2Ftracker.coppersurfer.tk%3A6969&amp;tr=udp%3A%2F%2Fexodus.desync.com%3A6969","seeders":0,"leechers":1,"uploader":"albedo040","files":1,"time":1288127441,"description":"Death Race*2008*[BluRay][720p][ENG, POL]\n\nGeneral information:\nCountry: USA, Germany, UK \nRelease: 21 August 2008\nGenre: Action, Sci-Fi, Thriller \nDirector: Paul W.S. Anderson\nScreenplay: Paul W.S. Anderson\nOriginal Music: Paul Haslinger\nCinematography by: Scott Kevan \nDuration: 1h 50mn\nLanguage: English, Polish\nSubtitles: English, Polish\nRating: 7.1/10 - 19849 votes\n\nCast:\nJason Statham  ...  Jensen Ames  \nJoan Allen  ...  Hennessey  \nIan McShane  ...  Coach  \nTyrese Gibson  ...  Machine Gun Joe  \nNatalie Martinez  ...  Case  \nMax Ryan  ...  Pachenko  \nJason Clarke  ...  Ulrich  \nFrederick Koehler  ...  Lists (as Fred Koehler)  \nJacob Vargas  ...  Gunner  \nJustin Mader  ...  Travis Colt  \nRobert LaSardo  ...  Grimm  \nRobin Shou  ...  14K  \nBenz Antoine  ...  Joe's Navigator  \nDanny Blanco Hall  ...  Joe's Navigator  \nChristian Paul  ...  Joe's Navigator  \n\nPlot:\nEx-con Jensen Ames is forced by the warden of a notorious prison to compete in our post-industrial world's most popular sport: a car race in which inmates must brutalize and kill one another on the road to victory.\n\nSpecifications:\nGeneral\nFormat                           : Matroska\nOverall bit rate                 : 6 293 Kbps\n\nVideo\nFormat                           : AVC\nFormat/Info                      : Advanced Video Codec\nFormat profile                   : &lt;a class=&quot;__cf_email__&quot; href=&quot;/cdn-cgi/l/email-protection&quot; data-cfemail=&quot;e3ab8a848ba3afd7cdd2&quot;&gt;[email&amp;#160;protected]&lt;/a&gt;&lt;script cf-hash='f9e31' type=&quot;text/javascript&quot;&gt;\n/* &lt;![CDATA[ */!function(){try{var t=&quot;currentScript&quot;in document?document.currentScript:function(){for(var t=document.getElementsByTagName(&quot;script&quot;),e=t.length;e--;)if(t[e].getAttribute(&quot;cf-hash&quot;))return t[e]}();if(t&amp;&amp;t.previousSibling){var e,r,n,i,c=t.previousSibling,a=c.getAttribute(&quot;data-cfemail&quot;);if(a){for(e=&quot;&quot;,r=parseInt(a.substr(0,2),16),n=2;a.length-n;n+=2)i=parseInt(a.substr(n,2),16)^r,e+=String.fromCharCode(i);e=document.createTextNode(e),c.parentNode.replaceChild(e,c)}}}catch(u){}}();/* ]]&gt; */&lt;/script&gt;\nFormat settings, CABAC           : Yes\nFormat settings, ReFrames        : 5 frames\nMuxing mode                      : Container profile=&lt;a class=&quot;__cf_email__&quot; href=&quot;/cdn-cgi/l/email-protection&quot; data-cfemail=&quot;51043f3a3f3e263f11657f60&quot;&gt;[email&amp;#160;protected]&lt;/a&gt;&lt;script cf-hash='f9e31' type=&quot;text/javascript&quot;&gt;\n/* &lt;![CDATA[ */!function(){try{var t=&quot;currentScript&quot;in document?document.currentScript:function(){for(var t=document.getElementsByTagName(&quot;script&quot;),e=t.length;e--;)if(t[e].getAttribute(&quot;cf-hash&quot;))return t[e]}();if(t&amp;&amp;t.previousSibling){var e,r,n,i,c=t.previousSibling,a=c.getAttribute(&quot;data-cfemail&quot;);if(a){for(e=&quot;&quot;,r=parseInt(a.substr(0,2),16),n=2;a.length-n;n+=2)i=parseInt(a.substr(n,2),16)^r,e+=String.fromCharCode(i);e=document.createTextNode(e),c.parentNode.replaceChild(e,c)}}}catch(u){}}();/* ]]&gt; */&lt;/script&gt;\nCodec ID                         : V_MPEG4/ISO/AVC\nBit rate                         : 4 893 Kbps\nWidth                            : 1 280 pixels\nHeight                           : 544 pixels\nDisplay aspect ratio             : 2.35:1\nFrame rate                       : 23.976 fps\n\nAudio 1\nFormat                           : AC-3\nFormat/Info                      : Audio Coding 3\nMode extension                   : CM (complete main)\nCodec ID                         : A_AC3\nBit rate mode                    : Constant\nBit rate                         : 640 Kbps\nChannel(s)                       : 6 channels\nChannel positions                : Front: L C R, Side: L R, LFE\nSampling rate                    : 48.0 KHz\nStream size                      : 506 MiB (10%)\nTitle                            : English\n\nAudio 2\nFormat                           : DTS\nFormat/Info                      : Digital Theater Systems\nCodec ID                         : A_DTS\nBit rate mode                    : Constant\nBit rate                         : 755 Kbps\nChannel(s)                       : 6 channels\nChannel positions                : Front: L C R, Side: L R, LFE\nSampling rate                    : 48.0 KHz\nBit depth                        : 24 bits\nStream size                      : 597 MiB (12%)\nTitle                            : Polish\nLanguage                         : Polish\n\nText 1\nFormat                           : UTF-8\nCodec ID                         : S_TEXT/UTF8\nCodec ID/Info                    : UTF-8 Plain Text\nTitle                            : English\n\nText 2\nFormat                           : UTF-8\nCodec ID                         : S_TEXT/UTF8\nCodec ID/Info                    : UTF-8 Plain Text\nTitle                            : Polish\nLanguage                         : Polish\n","torrent":{"xt":"urn:btih:ba23577fc0669b76fa161411faaefd599f88b272","amp;dn":"Death+Race%2A2008%2A%5BBluRay%5D%5B720p%5D%5BENG%2C+POL%5D","amp;tr":["udp%3A%2F%2Ftracker.openbittorrent.com%3A80","udp%3A%2F%2Fopen.demonii.com%3A1337","udp%3A%2F%2Ftracker.coppersurfer.tk%3A6969","udp%3A%2F%2Fexodus.desync.com%3A6969"],"infoHash":"ba23577fc0669b76fa161411faaefd599f88b272","infoHashBuffer":{"type":"Buffer","data":[186,35,87,127,192,102,155,118,250,22,20,17,250,174,253,89,159,136,178,114]},"announce":[],"urlList":[]}}